<?xml version="1.0" standalone="no"?>
<!DOCTYPE svg PUBLIC "-//W3C//DTD SVG 20010904//EN"
 "http://www.w3.org/TR/2001/REC-SVG-20010904/DTD/svg10.dtd">
<svg version="1.0" xmlns="http://www.w3.org/2000/svg"
 width="32.000000pt" height="32.000000pt" viewBox="0 0 32.000000 32.000000"
 preserveAspectRatio="xMidYMid meet">

<g transform="translate(0.000000,32.000000) scale(0.100000,-0.100000)"
fill="#000000" stroke="none">
<path d="M269 286 c-9 -12 -54 -42 -99 -66 -55 -30 -86 -53 -97 -73 -15 -31
-20 -87 -8 -106 7 -13 65 -15 65 -3 0 5 -10 8 -22 8 -14 -1 -24 6 -26 18 -3
15 1 18 21 14 20 -4 23 -1 19 14 -3 14 1 18 26 18 17 0 39 3 49 7 13 6 8 9
-22 13 l-40 5 53 19 c63 21 64 27 2 16 -25 -5 -47 -7 -49 -5 -1 2 24 17 58 34
40 21 66 41 76 62 20 38 16 55 -6 25z"/>
</g>
</svg>
